<svg width="16" height="16" viewBox="0 0 16 16" fill="none" xmlns="http://www.w3.org/2000/svg">
<path fill-rule="evenodd" clip-rule="evenodd" d="M13.3656 4.23435C13.5156 4.38437 13.5998 4.58782 13.5998 4.79995C13.5998 5.01208 13.5156 5.21553 13.3656 5.36555L6.96561 11.7656C6.81558 11.9155 6.61214 11.9998 6.40001 11.9998C6.18787 11.9998 5.98443 11.9155 5.83441 11.7656L2.63441 8.56555C2.48868 8.41467 2.40804 8.21259 2.40987 8.00283C2.41169 7.79307 2.49582 7.59242 2.64415 7.4441C2.79248 7.29577 2.99313 7.21163 3.20288 7.20981C3.41264 7.20799 3.61472 7.28863 3.76561 7.43435L6.40001 10.0688L12.2344 4.23435C12.3844 4.08437 12.5879 4.00012 12.8 4.00012C13.0121 4.00012 13.2156 4.08437 13.3656 4.23435Z" fill="white"/>
</svg>
