<?xml version="1.0" standalone="no"?>
<!DOCTYPE svg PUBLIC "-//W3C//DTD SVG 20010904//EN"
 "http://www.w3.org/TR/2001/REC-SVG-20010904/DTD/svg10.dtd">
<svg version="1.0" xmlns="http://www.w3.org/2000/svg"
 width="256.000000pt" height="256.000000pt" viewBox="0 0 256.000000 256.000000"
 preserveAspectRatio="xMidYMid meet">
<metadata>
Created by potrace 1.11, written by Peter Selinger 2001-2013
</metadata>
<g transform="translate(0.000000,256.000000) scale(0.100000,-0.100000)"
fill="#000000" stroke="none">
<path d="M1185 2339 c-105 -66 -297 -159 -410 -199 -100 -35 -292 -84 -373
-95 -96 -13 -92 7 -92 -419 0 -478 14 -575 110 -772 133 -275 384 -492 744
-644 79 -34 107 -41 139 -37 49 7 316 138 412 203 207 139 338 284 429 474
100 210 119 341 114 822 -3 312 -4 328 -23 347 -14 13 -63 27 -155 45 -240 48
-474 139 -681 266 -54 33 -106 60 -116 60 -10 -1 -54 -23 -98 -51z m280 -375
c237 -63 419 -245 496 -494 33 -107 33 -274 0 -380 -92 -299 -364 -511 -657
-514 -62 0 -77 3 -120 29 -117 73 -140 249 -46 348 37 40 71 56 176 84 143 38
210 98 223 200 16 139 -109 283 -246 283 -61 0 -120 -22 -165 -61 -88 -78
-110 -188 -60 -300 25 -56 26 -60 10 -84 -11 -17 -25 -25 -46 -25 -35 0 -57
20 -84 80 -31 66 -30 225 1 293 33 70 113 149 186 183 54 25 73 29 152 29 77
-1 98 -5 146 -28 87 -42 143 -98 186 -183 33 -68 37 -83 37 -157 0 -98 -20
-152 -85 -222 -52 -56 -113 -89 -228 -122 -112 -32 -141 -58 -141 -126 0 -41
5 -53 31 -79 30 -30 32 -31 102 -25 184 15 365 132 460 298 74 127 96 294 57
436 -74 273 -330 460 -605 439 -98 -7 -154 -24 -246 -72 -225 -118 -350 -389
-295 -637 34 -150 128 -290 251 -371 58 -39 72 -64 55 -95 -29 -55 -73 -46
-176 37 -193 156 -293 416 -254 659 47 296 258 520 555 589 75 17 245 11 330
-12z"/>
</g>
</svg>
